<?xml version="1.0" encoding="UTF-8" standalone="no"?>
<svg
   xmlns="http://www.w3.org/2000/svg"
   id="svg8"
   version="1.1"
   viewBox="0 0 210 297"
   height="297mm"
   width="210mm">
  <defs
     id="defs2" />
  <metadata
     id="metadata5">
  </metadata>
  <g
     id="layer1">
    <g
       transform="matrix(0.60808376,0,0,0.60808376,-50.669443,-12.213012)"
       id="g26">
      <circle
         cx="256"
         cy="192"
         r="32"
         id="circle12" />
      <path
         d="m 256,32 c -88.22,0 -160,68.65 -160,153 0,40.17 18.31,93.59 54.42,158.78 29,52.34 62.55,99.67 80,123.22 12.68533,17.31102 38.53467,17.31102 51.22,0 17.42,-23.55 51,-70.88 80,-123.22 C 397.69,278.61 416,225.19 416,185 416,100.65 344.22,32 256,32 Z"
         id="path14" />
    </g>
    <path
       id="path86"
       d="m 62.976541,159.06764 c -1.279013,-0.36711 -3.341354,-1.8271 -4.068778,-2.88045 -1.643487,-2.37982 -1.521249,-0.26878 -1.658268,-28.63554 l -0.124187,-25.71898 -2.760943,2.66429 c -2.858985,2.75889 -3.510259,3.17529 -4.966472,3.17529 -2.852455,0 -4.893924,-3.04677 -3.711333,-5.53893 0.27266,-0.57458 9.926534,-9.991704 27.356835,-26.685974 21.045591,-20.15691 27.245325,-25.961092 28.352425,-26.543565 1.2547,-0.660107 1.66087,-0.745471 3.54672,-0.745471 3.57499,0 3.49612,-0.05327 12.14382,8.209996 l 7.62891,7.28986 0.12418,-4.53981 c 0.12338,-4.50511 0.12959,-4.54676 0.82045,-5.45162 1.25111,-1.63862 1.3513,-1.65681 9.13149,-1.65681 7.91785,0 8.22376,0.0593 9.39054,1.82197 l 0.66117,0.99882 0.0717,14.11461 0.0717,14.11464 9.37095,8.97706 c 5.154,4.937347 9.57949,9.304034 9.83445,9.703724 0.29366,0.46037 0.46354,1.1819 0.46354,1.96894 0,2.91862 -2.92934,4.80455 -5.59429,3.60162 -0.43979,-0.19841 -1.97376,-1.47585 -3.40879,-2.83856 l -2.60919,-2.47759 -0.1271,25.51346 c -0.11922,23.95847 -0.15466,25.58537 -0.58195,26.69242 -0.59936,1.55287 -2.40512,3.5299 -3.9857,4.3638 l -1.2692,0.6696 -13.46921,0.0702 c -14.98537,0.0781 -14.58921,0.11748 -15.88226,-1.57746 l -0.71611,-0.93869 -0.12419,-18.08861 c -0.11637,-16.93485 -0.15262,-18.11689 -0.56777,-18.5322 -0.40964,-0.4097 -1.25594,-0.44893 -11.0769,-0.51331 -10.444284,-0.0685 -10.645034,-0.0606 -11.289944,0.44679 l -0.65658,0.51646 -0.0699,17.96002 -0.0699,17.96002 -0.66117,0.9989 c -1.2442,1.87974 -0.77053,1.82483 -15.5284,1.79965 -7.859688,-0.0131 -13.477033,-0.12141 -13.990543,-0.26865 z m 22.157625,-23.7506 0.0707,-16.08987 0.77982,-1.64589 c 1.34709,-2.84311 3.51006,-4.73776 6.33536,-5.54941 1.21938,-0.35031 2.93301,-0.39297 13.294334,-0.33082 l 11.8945,0.0713 1.6152,0.76697 c 3.09253,1.4685 5.22103,4.35232 5.71042,7.73682 0.13681,0.94679 0.24572,8.13182 0.24849,16.40757 l 0.004,14.7232 h 9.81546 9.81544 l -0.016,-28.76302 -0.016,-28.762997 -19.75965,-18.885427 c -10.86781,-10.38699 -19.83416,-18.86789 -19.92525,-18.84645 -0.0911,0.0214 -9.027454,8.51889 -19.858634,18.88322 L 65.449339,93.876453 v 28.765207 28.76525 h 9.806837 9.80684 z M 136.76708,67.540726 v -7.57903 h -1.86369 -1.86369 v 5.77161 5.77161 l 1.79535,1.8074 c 0.98744,0.99408 1.82609,1.80743 1.86369,1.80743 0.0376,0 0.0683,-3.41057 0.0683,-7.57902 z"
       style="fill:#ffffff;stroke-width:0.24849248" />
  </g>
</svg>
